<svg version="1.1" id="Layer_1" xmlns="http://www.w3.org/2000/svg" xmlns:xlink="http://www.w3.org/1999/xlink" x="0px" y="0px"
	 width="100%" viewBox="0 0 544 544" enable-background="new 0 0 544 544" xml:space="preserve">
<path fill="#000000" opacity="1.000000" stroke="none" 
	d="
M399.650665,311.369232 
	C425.244751,336.921326 450.631836,362.192871 475.936035,387.547150 
	C486.517731,398.149841 487.882385,412.041687 479.690155,423.270935 
	C471.504303,434.491577 455.514038,437.214935 444.116516,429.170227 
	C441.415375,427.263702 438.991211,424.915680 436.639832,422.570038 
	C405.848907,391.853821 375.042450,361.152588 344.404907,330.283844 
	C341.126373,326.980591 338.985901,326.335358 334.863983,329.150696 
	C310.992920,345.455078 284.374054,355.352234 255.695770,356.976288 
	C192.869873,360.534149 141.880997,337.327850 104.714127,285.839600 
	C88.817940,263.818237 79.189186,239.005173 76.013321,212.144562 
	C69.186676,154.406570 87.359543,105.395691 130.022842,65.925797 
	C156.685120,41.259224 188.808334,26.911579 224.752792,24.093548 
	C287.230560,19.195307 338.783142,41.257008 376.675842,92.013062 
	C396.928589,119.140999 406.926941,150.045319 408.479156,183.978821 
	C410.146332,220.425354 400.214417,253.331497 380.367859,283.512177 
	C377.932007,287.216400 377.564697,289.543427 381.036194,292.753296 
	C387.390106,298.628265 393.309570,304.973145 399.650665,311.369232 
M127.336380,200.158920 
	C128.190430,205.396393 128.749527,210.702133 129.943695,215.860870 
	C143.425568,274.101715 197.544022,311.479706 256.967987,303.803680 
	C281.411255,300.646271 302.705719,290.626770 320.270538,273.579346 
	C346.279358,248.336548 358.830566,217.706055 355.850830,180.986923 
	C354.319305,162.113556 349.061768,144.567596 338.612915,129.011414 
	C312.398773,89.983925 275.597229,71.471458 228.607178,76.449097 
	C190.561829,80.479225 161.756058,100.204552 142.157883,133.060394 
	C130.003113,153.437561 125.585587,175.667374 127.336380,200.158920 
z"/>
<path fill="#000000" opacity="1.000000" stroke="none" 
	d="
M140.868927,490.106384 
	C141.444458,487.341644 139.393799,483.191132 143.382019,483.327362 
	C146.644196,483.438843 145.186768,487.351776 145.267273,489.574524 
	C145.477753,495.385956 145.420273,501.212433 145.276398,507.028137 
	C145.232208,508.814514 146.307800,511.354218 143.524170,512.088440 
	C140.812393,512.803711 139.772369,510.515564 138.630127,508.711548 
	C135.178680,503.260498 131.771790,497.781189 127.792511,491.426605 
	C126.597137,497.482544 127.459053,502.573090 127.080200,507.587128 
	C126.940704,509.433472 127.504532,512.223389 124.490532,511.954773 
	C121.914047,511.725098 122.728989,509.117737 122.703293,507.462585 
	C122.600082,500.813721 122.611069,494.161621 122.697937,487.512268 
	C122.719925,485.829529 122.023376,483.603729 124.571609,482.965576 
	C126.958244,482.367859 128.209030,483.927734 129.342346,485.705200 
	C132.726669,491.013153 136.158157,496.291107 139.991547,502.232147 
	C141.505249,497.922699 140.551254,494.191010 140.868927,490.106384 
z"/>
<path fill="#000000" opacity="1.000000" stroke="none" 
	d="
M191.449005,511.355896 
	C188.662170,512.787781 187.738892,511.499329 187.726349,509.241333 
	C187.682907,501.423431 187.706650,493.605072 187.728836,485.786987 
	C187.732956,484.336029 188.228897,483.011993 189.873260,482.919708 
	C194.506577,482.659760 199.258057,481.951935 203.622162,484.107880 
	C208.581161,486.557709 208.697388,492.579010 204.158920,498.447388 
	C205.396759,501.944733 206.651917,505.361938 207.803802,508.813629 
	C208.222641,510.068726 208.628510,511.556458 206.756592,512.059631 
	C205.209717,512.475464 204.219742,511.644897 203.708679,510.210480 
	C202.983765,508.175751 202.297470,506.127228 201.561615,504.096558 
	C200.431183,500.977020 198.115967,499.723053 194.916809,500.115448 
	C191.369186,500.550568 192.415604,503.413208 192.186462,505.561127 
	C191.993454,507.370544 191.877014,509.188110 191.449005,511.355896 
M192.243332,493.115875 
	C194.270203,496.078766 199.721771,496.803986 201.729248,494.223969 
	C203.306976,492.196289 203.548523,489.715149 201.404572,488.038849 
	C199.353241,486.434937 196.625443,486.838287 194.228226,487.365082 
	C191.497742,487.965149 192.412521,490.445496 192.243332,493.115875 
z"/>
<path fill="#000000" opacity="1.000000" stroke="none" 
	d="
M455.057159,486.382477 
	C455.026550,493.804474 455.046173,500.772339 454.945007,507.738464 
	C454.904877,510.499146 454.896149,513.579651 450.566742,511.386169 
	C448.925629,510.554749 447.843170,512.182251 446.466278,512.549683 
	C441.068481,513.990295 436.407440,511.558716 434.780121,506.225769 
	C433.233582,501.157532 433.443390,496.209381 437.171082,492.243988 
	C440.721741,488.467010 445.248016,489.206909 449.556061,491.014832 
	C451.283569,489.595184 450.327332,487.797699 450.658020,486.281738 
	C451.031158,484.571228 449.597076,481.699097 452.800323,481.695923 
	C455.380524,481.693359 454.825684,484.212830 455.057159,486.382477 
M440.618042,495.213470 
	C438.623688,497.868713 437.823181,500.779053 438.789093,504.039795 
	C439.990295,508.094788 443.238647,509.777100 446.755859,508.191956 
	C450.067230,506.699554 451.589264,501.286316 449.621124,497.330688 
	C447.772797,493.615814 445.004272,492.283142 440.618042,495.213470 
z"/>
<path fill="#000000" opacity="1.000000" stroke="none" 
	d="
M217.081299,503.513489 
	C219.014496,509.002289 221.842819,510.103729 226.519058,507.325073 
	C227.983154,506.455109 229.414520,504.990448 230.663757,507.133453 
	C231.755234,509.005920 230.094833,510.203827 228.760300,511.180267 
	C223.247650,515.213623 214.972885,512.557800 212.754379,506.084442 
	C209.538345,496.700409 215.164032,488.686981 224.241791,489.721344 
	C229.004730,490.264069 232.589447,495.021057 231.901886,499.723541 
	C231.530823,502.261230 229.723251,502.196716 227.850555,502.382690 
	C224.282074,502.737122 220.594437,501.571289 217.081299,503.513489 
M226.760406,496.231079 
	C225.529526,493.824066 223.455353,492.895081 220.986298,493.616333 
	C219.113953,494.163269 217.361557,495.288422 217.824631,498.184509 
	C220.964203,498.172485 224.271408,500.514709 226.760406,496.231079 
z"/>
<path fill="#000000" opacity="1.000000" stroke="none" 
	d="
M351.802063,482.735870 
	C354.048523,483.053558 356.981628,482.014923 356.737518,485.102478 
	C356.550049,487.474091 353.892212,486.774902 352.181458,486.948181 
	C350.694550,487.098816 349.186096,487.082336 347.687927,487.066956 
	C344.432709,487.033539 343.975098,489.078003 343.979462,491.716003 
	C343.983765,494.314545 344.842468,495.905243 347.693329,495.823883 
	C348.192291,495.809662 348.708130,495.759583 349.189362,495.857605 
	C351.384979,496.304688 355.193970,494.544312 355.204834,498.138947 
	C355.214447,501.304108 351.520599,500.159760 349.481659,500.092041 
	C345.475891,499.958923 343.694122,501.246307 343.848907,505.514282 
	C343.932526,507.819061 345.239532,511.975342 341.446167,511.922546 
	C337.631104,511.869385 339.246399,507.781738 339.179504,505.432159 
	C339.013824,499.611237 339.340820,493.777740 339.251587,487.952606 
	C339.190491,483.962433 340.677429,482.139557 344.847137,482.675873 
	C346.977936,482.949951 349.172089,482.731689 351.802063,482.735870 
z"/>
<path fill="#000000" opacity="1.000000" stroke="none" 
	d="
M171.752853,497.720398 
	C173.097641,508.710815 167.381256,514.982483 158.710297,512.559814 
	C153.795563,511.186676 150.654922,506.335510 150.951981,500.576233 
	C151.256104,494.680115 154.561386,490.478119 159.466171,489.751984 
	C165.598785,488.844147 169.501450,491.272675 171.752853,497.720398 
M163.747589,508.384888 
	C167.669250,505.361481 168.841980,501.205627 166.915649,497.158173 
	C164.965256,493.060150 160.489975,492.079956 157.630905,495.321869 
	C155.284851,497.982147 154.765411,501.177155 155.994949,504.599030 
	C157.203110,507.961365 159.601654,509.134308 163.747589,508.384888 
z"/>
<path fill="#000000" opacity="1.000000" stroke="none" 
	d="
M380.624207,505.150330 
	C377.879364,511.983337 372.717590,514.482483 366.648590,512.243958 
	C361.114532,510.202728 358.479462,502.780365 360.918182,496.102661 
	C362.893250,490.694519 368.675812,488.131866 374.461853,490.100494 
	C379.507355,491.817169 381.860260,497.299286 380.624207,505.150330 
M364.652435,499.212311 
	C364.011688,502.495331 364.399506,505.557800 367.170074,507.743683 
	C369.007446,509.193359 371.321716,509.200531 373.281464,508.106293 
	C376.697021,506.199188 376.949799,502.816620 376.529083,499.412231 
	C376.150024,496.344849 374.443604,493.995300 371.305389,493.570038 
	C367.799561,493.094910 365.818329,495.254944 364.652435,499.212311 
z"/>
<path fill="#000000" opacity="1.000000" stroke="none" 
	d="
M389.260376,511.949738 
	C384.996613,508.948853 385.725800,504.765656 385.676361,500.826996 
	C385.645081,498.335541 385.638794,495.841858 385.710205,493.351715 
	C385.752289,491.883392 385.662292,490.069733 387.836975,490.139282 
	C389.861023,490.204071 389.994629,491.942139 390.035919,493.436676 
	C390.127686,496.757141 390.064789,500.081665 390.132690,503.403107 
	C390.184875,505.954834 390.189941,508.611084 393.816437,508.711243 
	C397.303101,508.807587 399.120148,506.733978 399.496429,503.637970 
	C399.874939,500.523560 399.582916,497.333038 399.722198,494.181946 
	C399.796967,492.489899 399.231445,490.040649 402.058441,490.161896 
	C404.358459,490.260468 404.148041,492.383972 404.163696,494.001892 
	C404.211975,498.985474 404.187286,503.969818 404.177155,508.953888 
	C404.172089,511.452301 403.300995,512.658447 400.488007,511.886078 
	C396.880341,510.895508 393.318237,514.802734 389.260376,511.949738 
z"/>
<path fill="#000000" opacity="1.000000" stroke="none" 
	d="
M257.663513,510.125427 
	C254.907318,504.213898 255.995987,498.328278 255.988525,492.546631 
	C255.986603,491.059937 256.829865,489.944031 258.499084,490.118073 
	C259.978241,490.272278 260.228638,491.530243 260.248718,492.731934 
	C260.309875,496.395477 260.311462,500.060089 260.331116,503.724274 
	C260.344910,506.293732 260.998474,508.449066 264.041534,508.656616 
	C267.148499,508.868500 269.313965,507.487427 269.625458,504.276367 
	C269.962372,500.803436 269.881256,497.291931 270.085144,493.803253 
	C270.179047,492.195709 270.056732,490.082550 272.441620,490.158966 
	C274.585724,490.227722 274.271423,492.212433 274.285034,493.625458 
	C274.342682,499.597870 274.309479,505.571136 274.309479,512.126099 
	C268.566589,510.114899 262.821320,516.372192 257.663513,510.125427 
z"/>
<path fill="#000000" opacity="1.000000" stroke="none" 
	d="
M410.818726,491.746765 
	C415.681152,491.413025 420.245026,488.384308 425.149445,490.267090 
	C426.980774,490.970062 428.113159,492.472412 428.591400,494.296356 
	C429.961761,499.522919 429.193146,504.851868 429.111572,510.140442 
	C429.090607,511.499054 428.114319,512.205505 426.731049,512.046814 
	C425.269348,511.879120 424.883240,510.752808 424.855774,509.530365 
	C424.777405,506.044586 424.745270,502.557159 424.746399,499.070404 
	C424.747253,496.404236 424.402191,493.715210 421.133789,493.556580 
	C417.724091,493.391022 415.439972,495.253998 415.203949,498.877594 
	C414.977509,502.353546 414.999329,505.845367 414.788971,509.322784 
	C414.709320,510.639191 414.415771,512.127258 412.578186,512.033691 
	C410.705292,511.938385 410.712982,510.404114 410.707672,509.093597 
	C410.684814,503.447632 410.725616,497.801453 410.818726,491.746765 
z"/>
<path fill="#000000" opacity="1.000000" stroke="none" 
	d="
M239.895050,512.506287 
	C238.334778,511.825775 237.071472,511.370789 235.995407,510.640106 
	C234.804993,509.831757 234.136383,508.586060 235.125931,507.231873 
	C236.148727,505.832214 237.368057,506.244293 238.566055,507.178223 
	C239.211441,507.681335 239.932648,508.263580 240.695343,508.406738 
	C242.965332,508.832672 245.759644,509.530823 246.755524,506.733612 
	C247.885696,503.559143 244.734100,503.616638 242.883759,502.887848 
	C241.502274,502.343689 239.975662,502.104828 238.681778,501.414825 
	C236.149689,500.064423 234.612701,497.973389 235.143524,494.929535 
	C235.664230,491.943634 237.654648,490.243469 240.536179,489.859039 
	C243.143387,489.511230 245.851517,489.220276 248.306244,490.661041 
	C249.469589,491.343872 250.743256,492.166260 250.057312,493.758850 
	C249.394241,495.298279 248.072845,495.287781 246.712921,494.567139 
	C246.127167,494.256714 245.567566,493.830841 244.941818,493.674133 
	C242.907135,493.164673 240.579514,492.975739 239.923798,495.392700 
	C239.271210,497.798218 241.624771,498.191895 243.350113,498.687866 
	C246.996262,499.735992 251.057526,500.186096 251.365967,505.328369 
	C251.710495,511.072418 247.723740,513.724548 239.895050,512.506287 
z"/>
<path fill="#000000" opacity="1.000000" stroke="none" 
	d="
M320.744537,490.698364 
	C322.166901,491.711578 323.391693,492.564636 322.313049,494.104797 
	C321.512543,495.247772 320.364014,495.106079 319.196320,494.538727 
	C318.308746,494.107452 317.391510,493.607025 316.439178,493.468140 
	C314.741364,493.220428 312.916260,493.290161 312.463715,495.424133 
	C312.066925,497.295410 313.518433,498.060059 315.005157,498.535889 
	C316.425018,498.990387 317.902466,499.262604 319.329895,499.696259 
	C322.395782,500.627625 324.116821,502.806274 324.111725,505.930054 
	C324.106293,509.264191 322.244415,511.459259 319.007721,512.490662 
	C315.221527,513.697266 311.780243,512.910461 308.620514,510.732727 
	C307.544495,509.991150 306.444092,508.943207 307.490051,507.415619 
	C308.419006,506.058929 309.599579,506.018555 310.898254,506.997406 
	C311.557190,507.494049 312.246613,508.085724 313.012207,508.279907 
	C315.280304,508.855225 318.114227,509.569672 319.163757,506.913391 
	C320.333862,503.952057 317.272278,503.649719 315.365204,502.902374 
	C314.288635,502.480469 313.113312,502.308167 312.041626,501.876556 
	C308.904877,500.613190 307.317230,498.338837 307.723297,494.870575 
	C308.127350,491.419617 310.557281,490.133759 313.555298,489.788147 
	C315.839569,489.524811 318.211212,489.342590 320.744537,490.698364 
z"/>
<path fill="#000000" opacity="1.000000" stroke="none" 
	d="
M304.317200,508.963318 
	C305.613922,513.096497 302.390625,512.912537 300.432526,512.961243 
	C297.297607,513.039185 294.358429,511.831604 293.848389,508.182220 
	C293.483032,505.567963 293.626221,502.871948 293.666656,500.214294 
	C293.717285,496.887421 294.074799,493.484894 289.707611,492.240662 
	C290.765259,489.418396 294.034576,488.843170 294.433105,485.855164 
	C294.574219,484.797119 297.077759,484.416077 297.393921,486.247375 
	C297.862946,488.963898 299.128510,489.906708 301.712982,489.796051 
	C302.923767,489.744171 304.102448,490.187134 303.995056,491.768738 
	C303.906555,493.071625 302.815155,493.369720 301.828156,493.299103 
	C297.875763,493.016083 297.527527,495.361298 297.885956,498.392944 
	C298.021759,499.541626 298.038361,500.732635 297.903717,501.880188 
	C297.358551,506.526367 298.866730,509.249603 304.317200,508.963318 
z"/>
<path fill="#000000" opacity="1.000000" stroke="none" 
	d="
M280.731781,491.082397 
	C280.728668,488.937775 280.660919,487.276276 280.745728,485.622620 
	C280.834473,483.892212 280.352203,481.558777 283.167999,481.672211 
	C285.594849,481.769958 285.229340,483.898956 285.247620,485.467682 
	C285.315155,491.270203 285.277679,497.073853 285.293304,502.877045 
	C285.299927,505.330688 284.873413,507.918579 287.946960,509.171112 
	C288.901581,509.560181 289.270782,510.658081 288.743286,511.713837 
	C288.246063,512.709045 287.278320,513.098267 286.248688,512.990112 
	C282.375824,512.583313 280.878143,510.015900 280.795288,506.490479 
	C280.678467,501.518921 280.745667,496.542999 280.731781,491.082397 
z"/>
<path fill="#000000" opacity="1.000000" stroke="none" 
	d="
M461.707672,498.742310 
	C461.714111,494.124847 461.698181,489.973663 461.759399,485.823669 
	C461.780029,484.425781 462.156250,483.106537 463.927521,483.075226 
	C465.699890,483.043854 466.158112,484.338165 466.180969,485.745117 
	C466.253906,490.226746 466.274078,494.710236 466.231750,499.192230 
	C466.216309,500.827576 466.287933,502.864319 463.952240,502.890411 
	C461.511780,502.917755 461.912964,500.783478 461.707672,498.742310 
z"/>
<path fill="#000000" opacity="1.000000" stroke="none" 
	d="
M461.486328,508.520050 
	C463.631592,506.589050 465.455933,506.773834 466.487366,509.078400 
	C467.192322,510.653473 466.311249,512.113831 464.512177,512.326660 
	C462.026276,512.620789 460.729553,511.495178 461.486328,508.520050 
z"/>
<path fill="#000000" opacity="1.000000" stroke="none" 
	d="
M249.845642,225.708008 
	C273.304993,227.390976 292.422852,237.071075 308.080841,253.783676 
	C312.782837,258.802368 310.680725,265.189331 303.917297,266.975677 
	C301.259705,267.677551 300.001129,265.662720 298.510895,264.172394 
	C289.697937,255.358810 279.792236,248.164963 268.014130,243.831802 
	C242.748169,234.536484 221.728485,240.897781 204.063187,261.249023 
	C201.774384,263.885834 199.863876,265.339630 196.551270,263.081360 
	C191.866623,259.887756 190.798767,257.577911 193.356873,253.763611 
	C203.683670,238.365631 218.503601,229.988815 236.474228,226.687881 
	C240.741318,225.904083 245.035629,225.534973 249.845642,225.708008 
z"/>
<path fill="#000000" opacity="1.000000" stroke="none" 
	d="
M218.535217,195.562225 
	C220.115463,197.537857 222.781952,198.555283 221.786987,201.697037 
	C219.326324,202.777039 218.197891,200.732727 216.888550,199.457062 
	C211.522369,194.228928 206.131729,189.019226 200.952271,183.609177 
	C198.665161,181.220276 197.068726,181.323242 194.831360,183.639618 
	C189.512970,189.145828 184.029465,194.495346 178.520599,199.812790 
	C177.211594,201.076294 175.567551,203.521729 173.645554,201.325317 
	C172.080063,199.536331 174.372467,198.071609 175.587204,196.842392 
	C181.771225,190.584442 188.014236,184.384781 194.778931,177.622574 
	C188.434067,171.199722 182.245773,165.011826 176.164337,158.720657 
	C174.796753,157.305908 172.399658,156.063568 174.054459,153.325455 
	C176.392303,152.597031 177.340225,154.534134 178.558716,155.724014 
	C183.918365,160.957733 189.261169,166.211441 194.493149,171.572006 
	C196.899078,174.037079 198.811493,173.871964 201.164383,171.444031 
	C206.260193,166.185730 211.520355,161.085190 216.771835,155.980362 
	C218.020752,154.766312 218.976608,152.951752 221.445679,153.164841 
	C223.259460,155.794708 221.182144,157.390335 219.633209,158.911118 
	C213.470078,164.962173 207.217896,170.922531 200.425522,177.468964 
	C206.830261,183.869781 212.552689,189.588715 218.535217,195.562225 
z"/>
<path fill="#000000" opacity="1.000000" stroke="none" 
	d="
M282.488342,166.509232 
	C290.799805,174.875854 290.814606,174.891083 299.009979,166.932266 
	C302.834076,163.218521 306.566101,159.409973 310.387848,155.693771 
	C311.531555,154.581635 312.417206,152.966171 314.710815,153.143478 
	C316.547455,155.520706 314.556458,156.933380 313.124176,158.382629 
	C308.205872,163.359299 303.220337,168.269562 298.308472,173.252502 
	C297.041504,174.537842 295.478638,175.616745 294.778717,177.712433 
	C300.550232,186.383743 310.478546,191.755737 315.969849,201.270142 
	C312.470642,202.871780 311.376251,200.715698 310.069672,199.450012 
	C304.805054,194.350220 299.521484,189.259384 294.491486,183.932419 
	C291.958405,181.249817 290.169983,181.148849 287.585968,183.875732 
	C282.546631,189.193649 277.233826,194.254349 271.978973,199.364716 
	C270.732880,200.576523 269.706116,202.366302 267.265503,201.861832 
	C265.706421,199.361511 267.702515,197.987839 269.120026,196.515854 
	C275.109863,190.296005 281.135864,184.110947 287.690613,177.354507 
	C281.717987,171.305908 275.643707,165.230270 269.673370,159.054153 
	C268.201050,157.531113 265.651855,156.198456 268.113556,152.257004 
	C272.962097,157.063873 277.600098,161.661987 282.488342,166.509232 
z"/>
</svg>